<?xml version="1.0" encoding="UTF-8"?><svg id="Primary_Outline" xmlns="http://www.w3.org/2000/svg" viewBox="0 0 59.03 56.54"><defs><style>.cls-1{fill:none;stroke:#fff;stroke-linecap:round;stroke-linejoin:round;}</style></defs><path class="cls-1" d="M41.99,19.89h13.16c1.86,0,3.37-1.51,3.37-3.37V3.87c0-1.86-1.51-3.37-3.37-3.37h-24.54c-1.86,0-3.37,1.51-3.37,3.37v12.65c0,1.86,1.51,3.37,3.37,3.37h0c1.32,0,2.26,1.27,1.88,2.53l-.9,3.02c-.28.94.82,1.68,1.58,1.06l7.57-6.17c.35-.29.79-.44,1.24-.44Z"/><line class="cls-1" x1="34.95" y1="6.84" x2="50.82" y2="6.84"/><line class="cls-1" x1="34.95" y1="12.95" x2="50.82" y2="12.95"/><circle class="cls-1" cx="20.95" cy="31.34" r="5.2"/><path class="cls-1" d="M29.69,48.08h0v-4.54c0-3.63-2.93-6.57-6.56-6.57h-4.35c-3.63,0-6.56,2.94-6.56,6.57v4.53h0"/><path class="cls-1" d="M55.51,48.07H3.5c-1.66,0-3,1.34-3,3h0c0,2.75,2.15,4.97,4.79,4.97h48.42c2.65,0,4.79-2.23,4.79-4.97h0c0-1.66-1.34-3-3-3Z"/><path class="cls-1" d="M55.53,19.95v28.13H2.47v-26.58c0-4.24,3.44-7.68,7.68-7.68h17.09"/><path class="cls-1" d="M50.21,19.89v28.18"/><path class="cls-1" d="M7.8,48.06v-22.19c0-3.19,2.61-5.81,5.81-5.81h17.13"/><line class="cls-1" x1="32.07" y1="52.43" x2="26.69" y2="52.43"/><line class="cls-1" x1="34.42" y1="25.5" x2="34.47" y2="47.36"/><line class="cls-1" x1="50.21" y1="35.04" x2="34.44" y2="35.04"/></svg>