<?xml version="1.0" encoding="UTF-8"?>
<svg version="1.1" xmlns="http://www.w3.org/2000/svg" width="308" height="302">
<path d="M0 0 C101.64 0 203.28 0 308 0 C308 99.66 308 199.32 308 302 C206.36 302 104.72 302 0 302 C0 202.34 0 102.68 0 0 Z " fill="#FDF5E5" transform="translate(0,0)"/>
<path d="M0 0 C101.31 0 202.62 0 307 0 C307 5.79488216 306.83570431 10.66109459 305.875 16.25 C305.68683716 17.3471936 305.68683716 17.3471936 305.49487305 18.46655273 C304.17795968 25.32875945 301.58162521 30.98426057 298 37 C297.34 37 296.68 37 296 37 C295.95875 37.680625 295.9175 38.36125 295.875 39.0625 C294.64701039 43.18503653 292.15076207 46.09996171 289 49 C288.34 49 287.68 49 287 49 C287 49.66 287 50.32 287 51 C286.34 51 285.68 51 285 51 C285 51.66 285 52.32 285 53 C280.48924869 58.07459522 275.18309519 63.2042262 268.5 64.875 C267.675 64.91625 266.85 64.9575 266 65 C265.67 65.99 265.34 66.98 265 68 C258.53888642 70.62824959 251.86178932 71.96917994 245.0390625 73.3515625 C241.97589033 73.94620096 241.97589033 73.94620096 239 75 C236.07132497 75.10009154 233.16572348 75.14367236 230.23681641 75.1418457 C228.89222855 75.14705734 228.89222855 75.14705734 227.52047729 75.15237427 C225.57090501 75.15973142 223.62132435 75.16507702 221.67174149 75.16866493 C218.57620759 75.17584002 215.48083133 75.19151797 212.38534546 75.21000671 C203.58260361 75.2624022 194.77994494 75.31037091 185.97705078 75.32592773 C180.59175017 75.33606837 175.20684206 75.36555337 169.82169724 75.40724754 C167.77823241 75.41948384 165.73471193 75.42469242 163.6912117 75.42244911 C152.34535919 75.41306566 142.66417398 75.79921517 132 80 C130.93746002 80.33183792 129.87492004 80.66367584 128.78018188 81.00556946 C125.9041113 81.8107877 125.9041113 81.8107877 124 84 C122.01178687 84.39764263 120.01055661 84.73775349 118 85 C117.505 86.485 117.505 86.485 117 88 C116.071875 88.45375 115.14375 88.9075 114.1875 89.375 C110.7032871 91.1512654 109.30218331 92.90396037 107 96 C106.01 96.66 105.02 97.32 104 98 C103.484375 98.86625 102.96875 99.7325 102.4375 100.625 C101.963125 101.40875 101.48875 102.1925 101 103 C100.34 103 99.68 103 99 103 C99 103.66 99 104.32 99 105 C98.34 105 97.68 105 97 105 C96.82984375 105.556875 96.6596875 106.11375 96.484375 106.6875 C94.76926257 112.08827957 92.60054861 116.97748123 90 122 C86.37691662 129.64873159 85.7024471 138.08480341 85.72875977 146.43432617 C85.72091965 147.76099808 85.72091965 147.76099808 85.71292114 149.11447144 C85.70275625 151.01697729 85.696914 152.91951038 85.69503975 154.82204247 C85.69133976 157.84733581 85.67451332 160.8723118 85.65428162 163.89753723 C85.59922631 172.49291032 85.56829675 181.0883293 85.54370117 189.68383789 C85.52770083 194.96044003 85.49735387 200.236816 85.45893669 205.51329994 C85.44739676 207.50766893 85.44135732 209.50207857 85.44125557 211.49648094 C85.43994538 230.3457504 83.59391052 247.75600387 73 264 C72.01 264.66 71.02 265.32 70 266 C69.71125 266.598125 69.4225 267.19625 69.125 267.8125 C67.58557396 270.80582842 65.48718418 272.76153424 63 275 C62.34 275 61.68 275 61 275 C61 275.66 61 276.32 61 277 C60.34 277 59.68 277 59 277 C59 277.66 59 278.32 59 279 C58.34 279 57.68 279 57 279 C57 279.66 57 280.32 57 281 C55.05230416 282.55936081 53.12256527 283.97806171 51.0625 285.375 C50.17485962 285.98226929 50.17485962 285.98226929 49.26928711 286.60180664 C44.71976878 289.65106347 40.15321147 292.11083897 35 294 C33.96875 294.391875 32.9375 294.78375 31.875 295.1875 C21.28628479 298.179963 11.20973573 297 0 297 C0 198.99 0 100.98 0 0 Z " fill="#FEFEFE" transform="translate(0,0)"/>
</svg>
