<?xml version="1.0" encoding="UTF-8"?><svg id="Isolation_Mode" xmlns="http://www.w3.org/2000/svg" viewBox="0 0 138.79 106.28"><defs><style>.cls-1{fill:#7dbee8;}</style></defs><path class="cls-1" d="M91.94,103.41c-1.94,1.42-4.01,2.37-6.31,2.72-4.13.64-8.17-.82-12-4.33-3.55-3.25-5.41-7.1-5.51-11.44-.26-10.3,9.58-20.25,19.09-29.87,3.93-3.98,7.65-7.74,10.19-11.08,3.09-4.07,2.85-5.53,2.84-5.59-.04-.19-.59-.93-2.59-1.78-7.43-3.19-12.6,4.53-21.36,23.03-5.48,11.57-10.65,22.5-18.98,25.45-3.4,1.21-7.06.95-10.58-.74-5.64-2.71-7.63-6.69-8.31-9.56-2.32-9.84,6.67-21.4,16.18-33.63,4.13-5.31,8.4-10.8,11.09-15.49,3.19-5.54,2.9-7.72,2.63-8.4-.2-.51-1.36-2.27-7.64-3.24-1.01-.16-3.69-.57-7.79,5.65-3.27,4.95-6.18,12.22-9.01,19.25-4.53,11.29-8.86,22.07-15.67,27.05-1.5,1.1-3.12,1.91-4.89,2.39-4.65,1.26-9.49-.03-14.39-3.84C3.19,65.5.1,59.49,0,52.59c-.14-9.83,5.66-21.56,17.25-34.85C25.52,8.26,33.71,1.47,34.06,1.18c2.2-1.82,5.48-1.51,7.3.7,1.82,2.21,1.51,5.48-.7,7.3-.15.12-8.01,6.66-15.68,15.48-9.66,11.1-14.71,20.71-14.6,27.78.06,3.8,1.62,6.76,4.91,9.32,2.19,1.7,3.98,2.38,5.32,2.02,1.27-.34,3.4-1.82,6.29-6.88,2.57-4.5,4.89-10.29,7.36-16.42,3.01-7.51,6.13-15.27,9.97-21.09,5.16-7.82,11.23-11.25,18.04-10.19,8.5,1.32,13.63,4.48,15.69,9.66,3.83,9.64-5.4,21.51-15.17,34.08-4.06,5.22-8.26,10.63-11.06,15.37-3.39,5.74-3.47,8.43-3.21,9.52.09.4.34,1.45,2.7,2.59,1.32.63,2.07.51,2.63.31,4.26-1.51,9.15-11.83,13.07-20.12,3.74-7.89,7.6-16.05,12.51-21.78,8.24-9.62,16.68-8.76,22.31-6.34,4.97,2.13,7.88,5.27,8.68,9.32,1.62,8.3-6.46,16.48-15.83,25.95-7.24,7.32-16.24,16.43-16.1,22.32.02.99.29,2.35,2.15,4.05.96.88,2.34,1.9,3.41,1.73.76-.12,2.45-.86,5.27-4.52,2.52-3.27,5.08-7.7,7.79-12.4,4.36-7.55,8.86-15.36,14.54-20.81,3.45-3.31,6.94-5.38,10.68-6.33,4.36-1.12,8.88-.63,13.42,1.45,2.6,1.19,3.75,4.27,2.56,6.87-1.19,2.6-4.27,3.75-6.87,2.56-9.56-4.37-16.25,5.65-25.35,21.44-4.68,8.11-8.89,15.41-14.15,19.26Z"/></svg>